<!DOCTYPE svg PUBLIC "-//W3C//DTD SVG 1.1//EN" "http://www.w3.org/Graphics/SVG/1.1/DTD/svg11.dtd">
<!-- Uploaded to: SVG Repo, www.svgrepo.com, Transformed by: SVG Repo Mixer Tools -->
<svg fill="#ffffff" width="800px" height="800px" viewBox="0 0 24 24" role="img" xmlns="http://www.w3.org/2000/svg" stroke="#ffffff">
<g id="SVGRepo_bgCarrier" stroke-width="0"/>
<g id="SVGRepo_tracerCarrier" stroke-linecap="round" stroke-linejoin="round"/>
<g id="SVGRepo_iconCarrier">
<title>Trello icon</title>
<path d="M21 0H3C1.343 0 0 1.343 0 3v18c0 1.656 1.343 3 3 3h18c1.656 0 3-1.344 3-3V3c0-1.657-1.344-3-3-3zM10.44 18.18c0 .795-.645 1.44-1.44 1.44H4.56c-.795 0-1.44-.646-1.44-1.44V4.56c0-.795.645-1.44 1.44-1.44H9c.795 0 1.44.645 1.44 1.44v13.62zm10.44-6c0 .794-.645 1.44-1.44 1.44H15c-.795 0-1.44-.646-1.44-1.44V4.56c0-.795.646-1.44 1.44-1.44h4.44c.795 0 1.44.645 1.44 1.44v7.62z"/>
</g>
</svg>